<svg xmlns="http://www.w3.org/2000/svg" aria-hidden="true" style="position:absolute;width:0;height:0;overflow:hidden">
  <defs>
    <symbol id="icon-arrow-left" viewBox="0 0 32 32">
      <path stroke-linecap="round" stroke-linejoin="round" stroke-width="3.556" d="m20 24-8-8 8-8"/>
    </symbol>
    <symbol id="icon-arrow-right" viewBox="0 0 32 32">
      <path stroke-linecap="round" stroke-linejoin="round" stroke-width="3.556" d="m12 24 8-8-8-8"/>
    </symbol>
    <symbol id="icon-arrow-up" viewBox="0 0 32 32">
      <path stroke-linecap="round" stroke-linejoin="round" stroke-width="3.2" d="m8 20 8-8 8 8"/>
    </symbol>
    <symbol id="icon-close" viewBox="0 0 32 32">
      <path stroke-linecap="round" stroke-linejoin="round" stroke-width="3.429" d="M24 8 8 24M8 8l16 16"/>
    </symbol>
    <symbol id="icon-edit" viewBox="0 0 32 32">
      <path stroke-linecap="round" stroke-linejoin="round" stroke-width="3.6" d="M22.666 4a3.766 3.766 0 0 1 4.109-.817 3.781 3.781 0 0 1 2.041 2.04 3.764 3.764 0 0 1 0 2.886 3.756 3.756 0 0 1-.817 1.223l-18 18-7.333 2 2-7.333 18-18z"/>
    </symbol>
    <symbol id="icon-eye-off" viewBox="0 0 32 32">
      <path stroke-linecap="round" stroke-linejoin="round" stroke-width="2.88" d="M23.92 23.92A13.43 13.43 0 0 1 16 26.667C6.667 26.667 1.333 16 1.333 16A24.605 24.605 0 0 1 8.08 8.08m5.12-2.427a12.161 12.161 0 0 1 2.8-.32C25.333 5.333 30.667 16 30.667 16a24.646 24.646 0 0 1-2.88 4.253m-8.961-1.426a4.01 4.01 0 0 1-2.855 1.273 3.978 3.978 0 0 1-1.569-.291 3.984 3.984 0 0 1-2.21-2.21 3.995 3.995 0 0 1 .983-4.424M1.333 1.333l29.333 29.333"/>
    </symbol>
    <symbol id="icon-eye-on" viewBox="0 0 32 32">
      <path stroke-linecap="round" stroke-linejoin="round" stroke-width="2.88" d="M1.333 16S6.666 5.333 16 5.333 30.667 16 30.667 16 25.334 26.667 16 26.667 1.333 16 1.333 16z"/>
      <path stroke-linecap="round" stroke-linejoin="round" stroke-width="2.88" d="M16 20a4 4 0 1 0 0-8 4 4 0 0 0 0 8z"/>
    </symbol>
    <symbol id="icon-glass" viewBox="0 0 32 32">
      <path fill="#9be1a0" d="M27.568 5.226c-.097-.321-.26-.616-.479-.868s-.488-.452-.79-.589a2.176 2.176 0 0 0-.958-.21H6.711a1.903 1.903 0 0 0-.958.197 2.299 2.299 0 0 0-.803.604 2.356 2.356 0 0 0-.479.866c-.1.318-.131.654-.091.984l2.123 18.377a5.16 5.16 0 0 0 1.67 3.255 4.946 4.946 0 0 0 3.327 1.313h9.062a4.97 4.97 0 0 0 3.34-1.313 5.275 5.275 0 0 0 1.657-3.255l1.152-10.331v-.157l.893-7.876a2.66 2.66 0 0 0-.039-.998zM14.492 25.375h-1.295a3.7 3.7 0 0 1-2.266-.945 3.718 3.718 0 0 1-1.165-2.192l-.311-2.258c-.04-.344.055-.69.264-.965s.515-.455.854-.503c.338-.048.682.04.957.246s.46.512.515.854l.311 2.232c.035.244.154.467.337.63.181.168.415.266.66.276h1.295c.343 0 .673.138.915.384a1.325 1.325 0 0 1 0 1.856 1.286 1.286 0 0 1-.915.384h-.155zm10.357-12.116c-2.732.538-5.062.643-7.535-1.313-3.068-2.455-6.784-1.667-10.357-.381L6.31 5.999a.38.38 0 0 1 0-.171.34.34 0 0 1 .091-.144.266.266 0 0 1 .129-.105.273.273 0 0 1 .155 0h18.798a.526.526 0 0 1 .13.105.308.308 0 0 1 .078.144.29.29 0 0 1 0 .184l-.842 7.246z" style="fill:var(--color1, #9be1a0)"/>
    </symbol>
    <symbol id="icon-logout" viewBox="0 0 32 32">
      <path stroke-linecap="round" stroke-linejoin="round" stroke-width="3" d="M12 28H6.667A2.668 2.668 0 0 1 4 25.333V6.666a2.668 2.668 0 0 1 2.667-2.667H12M21.334 22.667 28.001 16l-6.667-6.667M28 16H12"/>
    </symbol>
    <symbol id="icon-minus-amount" viewBox="0 0 32 32">
      <path stroke-width="1.2" d="M16 .6C24.505.6 31.4 7.495 31.4 16S24.505 31.4 16 31.4.6 24.505.6 16 7.495.6 16 .6z"/>
      <path stroke-linecap="round" stroke-linejoin="round" stroke-width="1.44" d="M10.286 16h11.429"/>
    </symbol>
    <symbol id="icon-pie-chart" viewBox="0 0 32 32">
      <path fill="none" stroke="#323f47" stroke-linecap="round" stroke-linejoin="round" stroke-width="2.667" d="M22.933 18.667c.369 0 .554 0 .704.082a.713.713 0 0 1 .293.324c.067.157.05.324.016.659a10.665 10.665 0 0 1-12.694 9.397c-2.069-.412-3.97-1.428-5.462-2.919s-2.508-3.392-2.919-5.461a10.666 10.666 0 0 1 9.397-12.694c.334-.034.502-.05.659.016.13.055.257.17.324.293.082.15.082.334.082.704v8.533c0 .373 0 .56.073.703a.67.67 0 0 0 .291.291c.143.073.329.073.703.073h8.533z" style="stroke:var(--color2, #323f47)"/>
      <path fill="none" stroke="#9be1a0" stroke-linecap="round" stroke-linejoin="round" stroke-width="2.667" d="M18.667 3.733c0-.369 0-.554.082-.704a.713.713 0 0 1 .324-.293c.157-.067.324-.05.659-.016a10.67 10.67 0 0 1 9.549 9.549c.033.334.05.502-.016.659a.704.704 0 0 1-.293.324c-.15.082-.334.082-.704.082h-8.533c-.373 0-.56 0-.703-.073a.67.67 0 0 1-.291-.291c-.073-.143-.073-.329-.073-.703V3.734z" style="stroke:var(--color1, #9be1a0)"/>
    </symbol>
    <symbol id="icon-plus" viewBox="0 0 32 32">
      <path stroke-linecap="round" stroke-linejoin="round" stroke-width="2.667" d="M16 6.667v18.667M6.667 16h18.667"/>
    </symbol>
    <symbol id="icon-plus-amount" viewBox="0 0 32 32">
      <path stroke-width="1.2" d="M16 .6C24.505.6 31.4 7.495 31.4 16S24.505 31.4 16 31.4.6 24.505.6 16 7.495.6 16 .6z"/>
      <path stroke-linecap="round" stroke-linejoin="round" stroke-width="1.44" d="M16 10.286v11.429M10.286 16h11.429"/>
    </symbol>
    <symbol id="icon-settings" viewBox="0 0 32 32">
      <path stroke-linecap="round" stroke-linejoin="round" stroke-width="3" d="M16 20a4 4 0 1 0 0-8 4 4 0 0 0 0 8z"/>
      <path stroke-linecap="round" stroke-linejoin="round" stroke-width="3" d="M25.867 20a2.205 2.205 0 0 0 .44 2.427l.08.08a2.672 2.672 0 0 1 .782 1.886 2.672 2.672 0 0 1-1.648 2.465 2.672 2.672 0 0 1-2.907-.579l-.08-.08a2.197 2.197 0 0 0-2.427-.44 2.2 2.2 0 0 0-1.334 2.013v.227a2.668 2.668 0 0 1-5.334 0v-.12a2.196 2.196 0 0 0-1.44-2.013 2.205 2.205 0 0 0-2.427.44l-.08.08a2.672 2.672 0 0 1-1.886.782 2.672 2.672 0 0 1-2.465-1.648 2.672 2.672 0 0 1 .579-2.907l.08-.08a2.197 2.197 0 0 0 .44-2.427 2.2 2.2 0 0 0-2.013-1.334H4a2.668 2.668 0 0 1 0-5.334h.12a2.196 2.196 0 0 0 2.013-1.44 2.2 2.2 0 0 0-.44-2.427l-.08-.08a2.666 2.666 0 0 1 .865-4.352 2.668 2.668 0 0 1 2.908.579l.08.08a2.197 2.197 0 0 0 2.427.44H12a2.2 2.2 0 0 0 1.334-2.013v-.227a2.668 2.668 0 0 1 5.334 0v.12a2.203 2.203 0 0 0 1.334 2.013 2.208 2.208 0 0 0 2.427-.44l.08-.08a2.672 2.672 0 0 1 1.886-.782 2.672 2.672 0 0 1 2.465 1.647 2.668 2.668 0 0 1-.579 2.907l-.08.08a2.197 2.197 0 0 0-.44 2.427v.107a2.2 2.2 0 0 0 2.013 1.334h.227a2.668 2.668 0 0 1 0 5.334h-.12a2.203 2.203 0 0 0-2.013 1.334z"/>
    </symbol>
    <symbol id="icon-trash" viewBox="0 0 32 32">
      <path stroke-linecap="round" stroke-linejoin="round" stroke-width="3" d="M12 4h8"/>
      <path stroke-linecap="round" stroke-linejoin="round" stroke-width="3.6" d="M4 8h24m-2.667 0-.935 14.026c-.14 2.104-.21 3.156-.665 3.954a4.007 4.007 0 0 1-1.731 1.62c-.826.4-1.881.4-3.99.4h-4.025c-2.109 0-3.163 0-3.99-.4a4.001 4.001 0 0 1-1.731-1.62c-.455-.798-.525-1.85-.665-3.954L6.666 8"/>
    </symbol>
    <symbol id="icon-upload" viewBox="0 0 32 32">
      <path stroke-linecap="round" stroke-linejoin="round" stroke-width="2.88" d="M28 20v5.333A2.668 2.668 0 0 1 25.333 28H6.666a2.668 2.668 0 0 1-2.667-2.667V20M22.666 10.667 15.999 4l-6.667 6.667M16 4v16"/>
    </symbol>
    <symbol id="en-flag" viewBox="0 0 32 32">
      <path fill="#fff" style="fill: var(--color1, #fff)" d="M2.286 4.571h27.429c1.262 0 2.286 1.023 2.286 2.286v18.286c0 1.262-1.023 2.286-2.286 2.286h-27.429c-1.262 0-2.286-1.023-2.286-2.286v-18.286c0-1.262 1.023-2.286 2.286-2.286z"></path>
      <path fill="#0a17a7" style="fill: var(--color2, #0a17a7)" d="M0 4.571h32v22.857h-32v-22.857z"></path>
      <path fill="#fff" style="fill: var(--color1, #fff)" d="M-1.466 2.381l13.656 9.211v-8.545h7.619v8.545l13.656-9.211 1.704 2.527-10.797 7.283h7.627v7.619h-7.627l10.797 7.283-1.704 2.527-13.656-9.211v8.545h-7.619v-8.545l-13.656 9.211-1.704-2.527 10.797-7.283h-7.627v-7.619h7.627l-10.797-7.283 1.704-2.527z"></path>
      <path fill="#e6273e" style="fill: var(--color3, #e6273e)" d="M0 18.286h13.714v9.143h4.571v-9.143h13.714v-4.571h-13.714v-9.143h-4.571v9.143h-13.714v4.571z"></path>
    </symbol>
    <symbol id="ua-flag" viewBox="0 0 32 32">
      <path fill="#fff" style="fill: var(--color1, #fff)" d="M2.286 4.571h27.429c1.262 0 2.286 1.023 2.286 2.286v18.286c0 1.262-1.023 2.286-2.286 2.286h-27.429c-1.262 0-2.286-1.023-2.286-2.286v-18.286c0-1.262 1.023-2.286 2.286-2.286z"></path>
      <path fill="#156dd1" style="fill: var(--color4, #156dd1)" d="M0 16.762h32v-12.191h-32v12.191z"></path>
      <path fill="#ffd948" style="fill: var(--color5, #ffd948)" d="M0 27.429h32v-10.667h-32v10.667z"></path>
    </symbol>
		<symbol id="icon-exclamation" viewBox="0 0 32 32">
      <path d="M13.474 18.545c.121 1.266.328 2.206.611 2.826.287.619.796.927 1.532.927a1.8 1.8 0 0 0 .383-.047c.125.025.248.047.386.047.733 0 1.244-.309 1.53-.927.285-.62.487-1.561.612-2.826l.653-9.771c.121-1.905.183-3.271.183-4.101 0-1.129-.295-2.01-.886-2.643-.593-.632-1.372-.948-2.337-.948-.052 0-.09.012-.14.014-.048-.002-.088-.014-.137-.014-.967 0-1.745.316-2.337.948s-.888 1.515-.888 2.643c0 .83.06 2.196.184 4.1l.652 9.77zm2.551 7.325c-.937 0-1.733.295-2.394.887s-.992 1.309-.992 2.153c0 .951.335 1.7 1 2.244.668.544 1.447.816 2.338.816.906 0 1.697-.268 2.373-.805.675-.536 1.012-1.289 1.012-2.254 0-.843-.323-1.561-.969-2.153s-1.436-.887-2.37-.887z"/>
    </symbol>
  </defs>
</svg>
