<?xml version="1.0" encoding="iso-8859-1"?>
<!-- Uploaded to: SVG Repo, www.svgrepo.com, Generator: SVG Repo Mixer Tools -->
<svg height="800px" width="800px" version="1.1" id="Layer_1" xmlns="http://www.w3.org/2000/svg" xmlns:xlink="http://www.w3.org/1999/xlink" 
	 viewBox="0 0 512 512" xml:space="preserve">
<path style="fill:#CFF09E;" d="M211.677,245.077c26.46,0,38.333,14.831,43.004,23.542c0.587,1.095,2.179,1.093,2.765-0.003
	c4.656-8.712,16.462-23.541,42.921-23.541c30.141,0,56.654,20.575,56.654,58.148c0,15.204-3.099,28.228-11.697,42.765
	c-17.524,29.623-75.254,68.023-87.113,75.589c-1.311,0.836-2.971,0.839-4.284,0.006c-11.868-7.531-69.61-45.742-87.269-75.595
	c-8.6-14.537-11.676-27.561-11.676-42.765C154.979,265.652,181.535,245.077,211.677,245.077z"/>
<g>
	<path style="fill:#507C5C;" d="M256.063,436.554c-3.483,0-6.881-0.987-9.826-2.857c-7.27-4.613-71.615-46.063-91.931-80.404
		c-9.458-15.986-13.676-31.427-13.676-50.069c0-47.592,35.74-72.493,71.046-72.493c21.382,0,35.479,8.04,44.373,16.446
		c8.878-8.405,22.954-16.446,44.316-16.446c19.033,0,36.61,6.717,49.493,18.912c14.072,13.318,21.508,31.846,21.508,53.582
		c0,18.618-4.224,34.059-13.697,50.069c-20.164,34.087-84.475,75.742-91.74,80.379C262.971,435.558,259.561,436.554,256.063,436.554
		z M211.677,259.424c-19.537,0-42.351,11.471-42.351,43.799c0,13.568,2.803,23.841,9.677,35.459
		c12.709,21.483,53.166,51.455,77.046,67.186c23.875-15.809,64.314-45.868,76.925-67.186c6.889-11.643,9.699-21.915,9.699-35.459
		c0-32.328-22.79-43.799-42.307-43.799c-17.968,0-26.377,8.676-30.265,15.954c-2.779,5.189-8.155,8.407-14.037,8.407
		c-5.877,0-11.25-3.212-14.024-8.384C238.129,268.111,229.69,259.424,211.677,259.424z"/>
	<path style="fill:#507C5C;" d="M256,512c-50.98,0-98.059-19.151-132.565-53.922C88.062,422.431,68.58,372.557,68.58,317.64
		c0-124.13,129.687-268.628,169.433-309.959c4.743-4.933,11.12-7.661,17.96-7.681c6.812,0.039,13.23,2.666,18.003,7.567
		c6.679,6.861,17.297,18.069,29.954,32.506c5.224,5.957,4.628,15.023-1.331,20.245c-5.956,5.225-15.023,4.631-20.245-1.331
		c-10.684-12.186-19.846-21.974-26.285-28.666C224.007,64.08,97.274,204.71,97.274,317.64c0,95.993,66.753,165.665,158.726,165.665
		s158.725-69.673,158.725-165.665c0-70.657-48.109-150.166-88.466-204.424c-4.73-6.357-3.409-15.344,2.95-20.073
		c6.356-4.73,15.341-3.41,20.073,2.95c62.465,83.978,94.137,158.517,94.137,221.549c0,54.915-19.481,104.79-54.855,140.437
		C354.057,492.851,306.978,512,256,512z"/>
</g>
</svg>